<?xml version="1.0" encoding="utf-8"?>
<!-- Generator: Adobe Illustrator 24.3.0, SVG Export Plug-In . SVG Version: 6.00 Build 0)  -->
<svg version="1.1" id="Layer_1" xmlns="http://www.w3.org/2000/svg" xmlns:xlink="http://www.w3.org/1999/xlink" x="0px" y="0px"
	 viewBox="0 0 200 200" style="enable-background:new 0 0 200 200;" xml:space="preserve">
<style type="text/css">
	.st0{fill:#699366;}
	.st1{fill:#F7F2DB;}
	.st2{fill:#4C4947;}
</style>
<g>
	<path class="st0" d="M179.9,199.9h-160c-11,0-20-9-20-20v-160c0-11,9-20,20-20h160c11,0,20,9,20,20v160
		C199.9,191,190.9,199.9,179.9,199.9z"/>
</g>
<g>
	<path class="st1" d="M180.1,10.1c5.5,0,10,4.5,10,10v160c0,5.5-4.5,10-10,10h-160c-5.5,0-10-4.5-10-10v-160c0-5.5,4.5-10,10-10
		H180.1 M180.1,0.1h-160c-11,0-20,9-20,20v160c0,11,9,20,20,20h160c11,0,20-9,20-20v-160C200.1,9.1,191.1,0.1,180.1,0.1L180.1,0.1z"
		/>
</g>
<g id="gate_01">
	<path class="st2" d="M30.5,71.8h12.8c1.7,0,3.1,1.4,3.1,3.1v74.3c0,1.7-1.4,3.1-3.1,3.1H30.5c-1.7,0-3.1-1.4-3.1-3.1V75
		C27.4,73.2,28.8,71.8,30.5,71.8z"/>
	<path class="st2" d="M156.1,71.8h12.8c1.7,0,3.1,1.4,3.1,3.1v74.3c0,1.7-1.4,3.1-3.1,3.1h-12.8c-1.7,0-3.1-1.4-3.1-3.1V75
		C152.9,73.2,154.3,71.8,156.1,71.8z"/>
	<path class="st2" d="M127.4,64.1c-2.5-0.4-5.1-0.8-7.8-1.1c0,0.6,0,1.1,0,1.7c0.1,11.8-9.4,21.3-21.2,21.4
		C86.7,86.2,77.1,76.8,77,65l0,0c-1.9,0.3-3.8,0.7-5.6,1c-7.7,1.5-15.3,3.4-22.7,5.8v35.5c52.1-16.6,101.8,0,101.8,0V71.8
		C143.3,68.1,135.5,65.5,127.4,64.1z"/>
	<path class="st2" d="M98.6,45.8c-10.4,0-18.9,8.5-18.9,18.9s8.5,18.9,18.9,18.9s18.9-8.5,18.9-18.9S109.1,45.8,98.6,45.8z
		 M107.7,74.6c-0.2,0.1-0.5,0.1-0.7,0.1h-3.7c-1.3,0-2.4,1-2.4,2.4v1.4c0.4,1.3-0.3,2.6-1.6,3c-1.3,0.4-2.6-0.3-3-1.6
		c-0.1-0.4-0.1-1,0-1.4v-1.4c0-1.3-1-2.4-2.4-2.4h-3.7c-0.7,0-1.4-0.4-1.9-1c-0.4-0.7-0.5-1.4-0.2-2.2l8.4-20.9
		c0.4-0.8,1.2-1.4,2.1-1.4l0,0c0.9,0.1,1.7,0.6,2.1,1.5l8.2,20.9C109.3,72.7,108.8,74.1,107.7,74.6z"/>
</g>
</svg>
