<?xml version="1.0" encoding="utf-8"?>
<!-- Generator: Adobe Illustrator 24.3.0, SVG Export Plug-In . SVG Version: 6.00 Build 0)  -->
<svg version="1.1" id="Layer_1" xmlns="http://www.w3.org/2000/svg" xmlns:xlink="http://www.w3.org/1999/xlink" x="0px" y="0px"
	 viewBox="0 0 200 200" style="enable-background:new 0 0 200 200;" xml:space="preserve">
<style type="text/css">
	.st0{fill:#699366;}
	.st1{fill:#F7F2DB;}
	.st2{fill:#383838;stroke:#383838;stroke-width:1.1457;stroke-miterlimit:10;}
	.st3{fill:#383838;}
	.st4{fill:none;stroke:#383838;stroke-width:0.8936;stroke-linejoin:round;}
</style>
<g>
	<path class="st0" d="M179.9,199.9h-160c-11,0-20-9-20-20v-160c0-11,9-20,20-20h160c11,0,20,9,20,20v160
		C199.9,191,190.9,199.9,179.9,199.9z"/>
</g>
<g>
	<path class="st1" d="M180.1,10.1c5.5,0,10,4.5,10,10v160c0,5.5-4.5,10-10,10h-160c-5.5,0-10-4.5-10-10v-160c0-5.5,4.5-10,10-10
		H180.1 M180.1,0.1h-160c-11,0-20,9-20,20v160c0,11,9,20,20,20h160c11,0,20-9,20-20v-160C200.1,9.1,191.1,0.1,180.1,0.1L180.1,0.1z"
		/>
</g>
<g id="bridge_icon">
	<g id="pin-4">
		<path class="st2" d="M146.9,74.6c0-25.8-20.9-46.7-46.7-46.7S53.5,48.8,53.4,74.6c0,25.2,20.1,46,45.3,46.7v64.5l1.5,2.5l1.5-2.5
			v-64.5C126.9,120.6,146.9,99.8,146.9,74.6z"/>
		<circle class="st1" cx="100.2" cy="74.6" r="44.4"/>
	</g>
	<g id="bridge-2">
		<path class="st3" d="M100.2,63.7c-11.7,0-22.9,3.5-30.1,8.3v17.1c0,0.7,0.5,1.2,1.2,1.2h10.3c0.7,0,1.2-0.5,1.2-1.2v-0.8
			c-0.1-9.6,7.7-17.4,17.3-17.4s17.4,7.7,17.4,17.3l0,0v1c0,0.7,0.5,1.2,1.2,1.2h10.3c0.7,0,1.2-0.5,1.2-1.2V72
			C123,67.1,111.8,63.7,100.2,63.7z"/>
		<path class="st3" d="M128.5,58.4c-1,0-1.7,0.8-1.7,1.8v0.2c-3-1.6-6.1-3-9.3-4v-2c0-1-0.8-1.8-1.8-1.8s-1.7,0.8-1.8,1.8v0.9
			c-3.9-1-7.9-1.6-12-1.6v-1.3c0-1-0.8-1.8-1.8-1.8c-1,0-1.7,0.8-1.8,1.8v1.4c-4,0.2-8.1,0.7-12,1.6v-0.9c0-1-0.8-1.8-1.8-1.8
			s-1.7,0.8-1.8,1.8v2c-3.2,1.1-6.3,2.4-9.3,4v-0.2c0.1-1-0.7-1.8-1.6-1.9c-1-0.1-1.8,0.7-1.9,1.6c0,0.1,0,0.2,0,0.2v10
			c1.2-0.7,2.4-1.3,3.5-1.8v-3.8c2.9-1.8,6-3.3,9.3-4.4v4.7c1.2-0.3,2.4-0.7,3.5-0.9v-4.9c3.9-1.1,7.9-1.6,12-1.8v5.2
			c1.2,0,2.4,0,3.5,0v-5.2c4,0.2,8.1,0.7,12,1.8V64c1.2,0.2,2.3,0.6,3.5,0.9v-4.7c3.3,1.1,6.3,2.6,9.3,4.4v3.8
			c1.2,0.6,2.5,1.2,3.5,1.8v-10C130.3,59.2,129.6,58.4,128.5,58.4C128.6,58.4,128.6,58.4,128.5,58.4z"/>
	</g>
	<path id="wave_1" class="st4" d="M123.5,95.9c-0.2,6.1-15.5,6.1-15.5,0c0,6.1-15.6,6.1-15.6,0c0,6.1-15.4,6.2-15.4,0"/>
	<path id="wave_2" class="st4" d="M118.5,103.3c-0.1,4.8-12.3,4.8-12.3,0c0,4.8-12.3,4.8-12.3,0c0,4.8-12.1,4.9-12.1,0"/>
</g>
</svg>
