<?xml version="1.0" encoding="utf-8"?>
<!-- Generator: Adobe Illustrator 24.3.0, SVG Export Plug-In . SVG Version: 6.00 Build 0)  -->
<svg version="1.1" id="Layer_1" xmlns="http://www.w3.org/2000/svg" xmlns:xlink="http://www.w3.org/1999/xlink" x="0px" y="0px"
	 viewBox="0 0 200 200" style="enable-background:new 0 0 200 200;" xml:space="preserve">
<style type="text/css">
	.st0{fill:#699366;}
	.st1{fill:#F7F2DB;}
	.st2{fill:none;stroke:#F7F2DB;stroke-width:33;stroke-linecap:round;stroke-miterlimit:10;}
</style>
<g>
	<path class="st0" d="M179.7,199.8h-160c-11,0-20-9-20-20v-160c0-11,9-20,20-20h160c11,0,20,9,20,20v160
		C199.7,190.9,190.7,199.8,179.7,199.8z"/>
</g>
<g>
	<path class="st1" d="M180,10c5.5,0,10,4.5,10,10v160c0,5.5-4.5,10-10,10H20c-5.5,0-10-4.5-10-10V20c0-5.5,4.5-10,10-10H180 M180,0
		H20C9,0,0,9,0,20v160c0,11,9,20,20,20h160c11,0,20-9,20-20V20C200,9,191,0,180,0L180,0z"/>
</g>
<path class="st2" d="M5.2,100c26.4-14.8,52-22.7,94.8,0c56.4,29.9,93.8-0.2,93.8-0.2"/>
</svg>
