<?xml version="1.0" encoding="utf-8"?>
<!-- Generator: Adobe Illustrator 24.3.0, SVG Export Plug-In . SVG Version: 6.00 Build 0)  -->
<svg version="1.1" id="Layer_1" xmlns="http://www.w3.org/2000/svg" xmlns:xlink="http://www.w3.org/1999/xlink" x="0px" y="0px"
	 viewBox="0 0 200 67.6" style="enable-background:new 0 0 200 67.6;" xml:space="preserve">
<style type="text/css">
	.st0{fill:#007853;}
	.st1{fill:#3E2B2F;}
</style>
<path class="st0" d="M54.7,3.5c0,3,0,6.1,0,9.1c0,3.9,0,7.8,0,11.7H35V3.5H54.7 M58.3,0H31.5v27.8h26.8c0-8.9,0-17.8,0-26.6L58.3,0
	L58.3,0z"/>
<path class="st0" d="M23.3,3.5v20.8H3.5c0-3.9,0-7.8,0-11.7c0-3,0-6.1,0-9.1L23.3,3.5 M26.8,0H0v1.2c0,8.9,0,17.8,0,26.6h26.8V0z"/>
<path class="st0" d="M54.7,36v4.6c0.2,5.8-2.9,11.3-7.9,14.1c-3.9,2.3-7.9,4.6-11.8,6.8V36H54.7 M58.3,32.5H31.5v35.1
	c5.7-3.2,11.5-6.5,17.1-9.9c6.1-3.5,9.8-10,9.6-17.1C58.2,37.9,58.2,35.2,58.3,32.5L58.3,32.5z"/>
<path class="st0" d="M23.3,36v25.5c-3.9-2.2-7.9-4.5-11.8-6.9c-5.1-2.8-8.2-8.3-8-14.1c0-1.5,0-3.1,0-4.6L23.3,36 M26.8,32.4H0v8.2
	c-0.2,7,3.5,13.6,9.7,17.1c5.6,3.4,11.4,6.6,17.1,9.9C26.8,67.6,26.8,32.5,26.8,32.4z"/>
<path class="st1" d="M83.2,2.7C80.9,0,77.6,0,74.9,0h-6.1v20.6h6c2.9,0,5.5,0,7.5-1.7c0.8-0.6,3.4-3.1,3.4-8.4
	C85.9,7.7,85,4.9,83.2,2.7z M82,10.6c0,2.8-0.8,4.8-2.4,6c-1.3,0.9-3.2,1-5,1h-2.3V3h2.9c2.2,0,3.8,0.3,5,1.6
	C81.9,6.5,82,9.4,82,10.6z"/>
<path class="st1" d="M103.3,0v12.6c0,1.4,0,5.2-5,5.2c-1.6,0.1-3.2-0.6-4.2-1.8c-0.6-1-0.9-2.2-0.8-3.3V0h-3.5v12.5
	c0,3.2,0.6,4.3,1.2,5.2c2.1,3,5.8,3.3,7.3,3.3c2.6,0.1,5-1,6.7-2.9c1.2-1.6,1.8-3.5,1.7-5.5V0H103.3z"/>
<path class="st1" d="M127.9,20.1c-0.6-2-1.1-4-1.2-6.1v-0.1c-0.2-2-0.9-3.1-2.3-3.8c0.5-0.2,1-0.6,1.5-1c1-1,1.5-2.4,1.5-3.8
	c0-1.8-0.9-3.4-2.4-4.4c-1.5-0.8-3.1-1.1-4.8-1h-7.5v20.6h3.5v-8.9h3.1c3.2,0,3.7,0.7,4,3.4v0.4c0.2,1.7,0.5,3.3,0.9,4.9l0.1,0.3
	h3.7L127.9,20.1z M116.2,3.1h4c1.8,0,3.6,0.3,3.6,2.8c0.1,0.9-0.4,1.8-1.2,2.2c-0.8,0.3-1.6,0.4-2.4,0.4h-4V3.1z"/>
<path class="st1" d="M146,0v8.5h-8.6V0h-3.5v20.6h3.5v-8.9h8.6v9h3.5V0H146z"/>
<path class="st1" d="M165.7,0h-3.5l-8.7,20.6h3.7l2.1-5.2h8.7l2.1,5.2h3.8L165.7,0z M167,12.4h-6.4c0.3-0.8,2.7-6.8,3.3-8.3
	C164.4,5.6,166.7,11.6,167,12.4z"/>
<path class="st1" d="M194.6,0l-5.5,15.5L183.8,0h-5.5v20.6h3.4V4.7l5.6,15.9h3.1c0,0,4.7-12.8,5.9-16v16h3.5V0H194.6z"/>
<rect x="68.7" y="52" class="st1" width="131" height="0.9"/>
<path class="st0" d="M81.5,40.1c-0.1,0.7-0.4,1.4-0.9,1.9c-0.8,0.7-1.8,1.1-2.9,1.1c-3.5,0-5.2-2.5-5.2-7.4c0-2.9,0.7-7.8,5.2-7.8
	c3.4,0,3.8,2.3,3.9,3.1l0.1,0.4h3.7v-0.4c-0.3-4.4-4.1-6-7.5-6c-6.7,0-9.1,5.6-9.1,10.8c0,2.4,0.6,10.4,8.7,10.4
	c3.3,0,7.3-1.5,7.8-5.9v-0.4h-3.8L81.5,40.1z"/>
<path class="st0" d="M97.7,24.7c-2.6-0.1-5.1,0.9-6.9,2.8c-1.8,1.9-2.7,4.6-2.7,8.2c0,6.8,3.3,10.6,9.3,10.6s9.6-4,9.6-11
	C107,28.5,103.6,24.7,97.7,24.7z M101.7,41.5c-1,1.2-2.5,1.8-4.1,1.7c-1.5,0.1-3.1-0.5-4.1-1.7c-1.2-1.8-1.8-3.9-1.7-6
	c0-5.1,2-7.7,5.9-7.7c3.8,0,5.6,2.5,5.6,7.5C103.4,36.8,103.1,39.7,101.7,41.5L101.7,41.5z"/>
<path class="st0" d="M114.1,42.6V25.2h-3.5v20.6h12.7v-3.2H114.1z"/>
<path class="st0" d="M131.1,42.6V25.2h-3.5v20.6h12.7v-3.2H131.1z"/>
<path class="st0" d="M148.8,42.6v-5.8h9.2v-3.1h-9.2v-5.4h9.7v-3.1h-13.2v20.6h13.4v-3.2H148.8z"/>
<path class="st0" d="M172.3,34.5v3h4.5v5.2c-1.3,0.4-2.6,0.5-3.9,0.5c-2.2,0-3.9-0.6-5-1.8c-1.3-1.5-1.7-4.1-1.7-6
	c-0.1-2.2,0.6-4.4,2-6.1c1.1-1.1,2.6-1.7,4.2-1.5c2.4,0,3.8,1,4.1,2.8l0.1,0.3h3.7v-0.4c0-1.3-0.5-2.5-1.4-3.4
	c-1.6-1.6-3.9-2.4-6.1-2.2c-2-0.1-4,0.5-5.7,1.5c-4.1,2.8-4.4,8-4.4,9.5c-0.1,2.9,0.9,5.7,2.9,7.8c1.7,1.7,4.1,2.6,7.5,2.6
	c2.4,0,4.8-0.4,7.1-1.2l0.3-0.1V34.5H172.3z"/>
<path class="st0" d="M190,42.6v-5.8h9.2v-3.1H190v-5.4h9.7v-3.1h-13.2v20.6H200v-3.2H190z"/>
<path class="st1" d="M71.4,67.6c-2.3,0-2.7-1.3-2.6-2.9h1.8c0,0.8,0,1.6,1.1,1.6c0.5,0,0.9-0.3,0.9-0.8c0-0.1,0-0.1,0-0.2
	c0-1.6-3.7-1.7-3.7-4.3c0-1.4,0.7-2.5,2.9-2.5c1.8,0,2.7,0.8,2.6,2.7h-1.8c0-0.7-0.1-1.3-0.9-1.3c-0.5-0.1-0.9,0.2-1,0.7
	c0,0.1,0,0.2,0,0.3c0,1.7,3.7,1.5,3.7,4.3C74.5,67.3,72.8,67.6,71.4,67.6z"/>
<path class="st1" d="M84,58.6v6.3c0,1.3-0.8,2.7-3,2.7c-2,0-3-1.1-3-2.7v-6.3h1.8v6.2c0,1.1,0.5,1.5,1.1,1.5s1.2-0.5,1.2-1.5v-6.2
	H84z"/>
<path class="st1" d="M87.8,63c0-2.3,0-4.6,3-4.6c1.9,0,2.6,1,2.6,2.9h-1.8c0-1.2-0.2-1.6-0.8-1.6c-1,0-1.2,1-1.2,3.2
	s0.1,3.2,1.2,3.2c0.8,0,0.8-1.1,0.8-1.8h1.8c0,2.4-1,3.1-2.7,3.1C87.8,67.6,87.8,65.3,87.8,63z"/>
<path class="st1" d="M97.1,63c0-2.3,0-4.6,3-4.6c1.9,0,2.7,1,2.6,2.9h-1.8c0-1.2-0.2-1.6-0.8-1.6c-1,0-1.2,1-1.2,3.2
	s0.1,3.2,1.2,3.2c0.9,0,0.8-1.1,0.8-1.8h1.8c0,2.4-0.9,3.1-2.7,3.1C97.1,67.6,97.1,65.3,97.1,63z"/>
<path class="st1" d="M106.4,67.4v-8.8h4.8v1.4h-3v2.2h2.8v1.4h-2.7v2.6h3.1v1.4L106.4,67.4z"/>
<path class="st1" d="M117.4,67.6c-2.3,0-2.7-1.3-2.6-2.9h1.8c0,0.8,0,1.6,1.1,1.6c0.5,0,0.9-0.3,0.9-0.8c0-0.1,0-0.1,0-0.2
	c0-1.6-3.7-1.7-3.7-4.3c0-1.4,0.7-2.5,2.9-2.5c1.8,0,2.7,0.8,2.6,2.7h-1.8c0-0.7-0.1-1.3-0.9-1.3c-0.5-0.1-0.9,0.2-1,0.7
	c0,0.1,0,0.2,0,0.3c0,1.7,3.7,1.5,3.7,4.3C120.5,67.3,118.8,67.6,117.4,67.6z"/>
<path class="st1" d="M126.6,67.6c-2.3,0-2.7-1.3-2.6-2.9h1.8c0,0.8,0,1.6,1.1,1.6c0.5,0,0.9-0.3,0.9-0.8c0-0.1,0-0.1,0-0.2
	c0-1.6-3.7-1.7-3.7-4.3c0-1.4,0.7-2.5,2.9-2.5c1.8,0,2.7,0.8,2.6,2.7h-1.8c0-0.7-0.1-1.3-0.9-1.3c-0.5-0.1-0.9,0.2-1,0.7
	c0,0.1,0,0.2,0,0.3c0,1.7,3.7,1.5,3.7,4.3C129.7,67.3,128,67.6,126.6,67.6z"/>
<path class="st1" d="M138.6,67.4v-8.8h3l1.4,6l0,0l1.5-6h2.9v8.8h-1.8v-6.8l0,0l-1.7,6.8h-1.8l-1.6-6.8l0,0v6.8H138.6z"/>
<path class="st1" d="M150.1,67.4l2.4-8.8h2.4l2.4,8.8h-1.9l-0.5-2h-2.5l-0.5,2H150.1z M153.7,60.3L153.7,60.3l-0.8,3.8h1.8
	L153.7,60.3z"/>
<path class="st1" d="M165.3,58.6v1.5h-2.1v7.4h-1.9V60h-2v-1.5H165.3z"/>
<path class="st1" d="M173.9,58.6v1.5h-2.1v7.4h-1.9V60h-2.1v-1.5H173.9z"/>
<path class="st1" d="M177.2,67.4v-8.8h4.9v1.4h-3v2.2h2.7v1.4H179v2.6h3.1v1.4L177.2,67.4z"/>
<path class="st1" d="M187.5,67.4h-1.9v-8.8h3.4c1.3,0,2.1,0.8,2.1,2.3c0.2,1-0.6,2-1.6,2.2c0,0,0,0,0,0l0,0c0.9,0,1.6,0.7,1.6,1.5
	c0,0.1,0,0.1,0,0.2c0,0.9,0,1.7,0.2,2.6h-1.8c-0.2-0.5-0.3-1.1-0.2-1.7c0-1.1,0.1-2-1.3-2h-0.5L187.5,67.4z M187.5,62.4h0.8
	c0.7,0,0.9-0.7,0.9-1.3c0-0.8-0.4-1.2-0.9-1.2h-0.8V62.4z"/>
<path class="st1" d="M196.6,67.6c-2.3,0-2.7-1.3-2.6-2.9h1.9c0,0.8,0,1.6,1.1,1.6c0.5,0,0.9-0.3,0.9-0.8c0-0.1,0-0.1,0-0.2
	c0-1.6-3.7-1.7-3.7-4.3c0-1.4,0.7-2.5,2.9-2.5c1.8,0,2.7,0.8,2.6,2.7h-1.8c0-0.7-0.1-1.3-0.9-1.3c-0.5-0.1-0.9,0.2-1,0.7
	c0,0.1,0,0.2,0,0.3c0,1.7,3.7,1.5,3.7,4.3C199.7,67.3,198,67.6,196.6,67.6z"/>
</svg>
